<?xml version="1.0" encoding="UTF-8" standalone="no"?>
<!DOCTYPE svg PUBLIC "-//W3C//DTD SVG 1.1//EN" "http://www.w3.org/Graphics/SVG/1.1/DTD/svg11.dtd">
<svg width="100%" height="100%" viewBox="0 0 5334 3000" version="1.1" xmlns="http://www.w3.org/2000/svg" xmlns:xlink="http://www.w3.org/1999/xlink" xml:space="preserve" xmlns:serif="http://www.serif.com/" style="fill-rule:evenodd;clip-rule:evenodd;stroke-linejoin:round;stroke-miterlimit:2;">
    <g transform="matrix(2.08333,0,0,2.08333,0,0)">
        <g transform="matrix(1.2965,0,0,1.04091,436.259,-70.6298)">
            <path d="M514.187,617.176C520.719,613.149 527.017,609.688 532.5,606.489C568.237,585.642 596.287,648.093 596.287,708.803C596.287,769.514 571.962,814 532.5,814C493.038,814 461,764.711 461,704C461,655.923 489.314,632.48 514.187,617.176L514.535,618.059L514.594,618.196L514.634,618.295L514.736,618.52L514.943,618.994L515.077,619.272L515.158,619.451L515.247,619.626L515.381,619.902L515.618,620.35L515.728,620.567L515.78,620.657L515.848,620.784L516.342,621.639L515.78,620.657L515.618,620.35L515.247,619.626L515.077,619.272L514.736,618.52L514.594,618.196L514.187,617.176ZM541.077,629.3C549.356,624.47 555.864,631.884 561.183,641.427C570.629,658.374 576.064,683.826 576.064,708.803C576.064,753.324 561.438,788.812 532.5,788.812C502.897,788.812 481.223,749.543 481.223,704C481.223,677.703 493.568,662.071 507.064,651.011C518.646,641.519 531.282,635.014 541.077,629.3ZM532.5,631.677C531.908,631.677 531.32,631.645 530.739,631.582L531.616,631.653L532.5,631.677ZM525.16,629.954L524.138,629.425L524.915,629.841L525.16,629.954L525.352,630.054L525.622,630.168L525.952,630.322L526.3,630.456L526.603,630.585L526.815,630.656L527.013,630.733L527.516,630.89L527.888,631.014L528.004,631.043C528.399,631.158 528.798,631.255 529.201,631.338L528.004,631.043L527.516,630.89L526.815,630.656L526.3,630.456L525.622,630.168L525.16,629.954ZM518.584,624.765L518.945,625.175L518.584,624.765L518.458,624.611L518.584,624.765Z" style="fill:rgb(0,47,167);"/>
        </g>
        <g transform="matrix(0.792976,0,0,0.67492,166.411,402.385)">
            <ellipse cx="1021.77" cy="569.379" rx="189.161" ry="84.899" style="fill:rgb(0,47,167);"/>
        </g>
        <g transform="matrix(1,0,0,0.998902,0,0.534473)">
            <rect x="826.647" y="486.67" width="300" height="300.33" style="fill:rgb(0,47,167);"/>
            <path d="M1126.65,486.67L826.647,486.67L826.647,787L1126.65,787L1126.65,486.67ZM1121.31,492.009L1121.31,781.661C1121.31,781.661 831.981,781.661 831.981,781.661C831.981,781.661 831.981,492.009 831.981,492.009L1121.31,492.009Z" style="fill:rgb(0,47,167);"/>
        </g>
        <g transform="matrix(0.792976,0,0,0.67492,166.411,102.385)">
            <ellipse cx="1021.77" cy="569.379" rx="189.161" ry="84.899" style="fill:white;"/>
            <path d="M1021.77,484.48C1126.17,484.48 1210.93,522.522 1210.93,569.379C1210.93,616.236 1126.17,654.278 1021.77,654.278C917.365,654.278 832.605,616.236 832.605,569.379C832.605,522.522 917.365,484.48 1021.77,484.48ZM1021.77,492.382C1083.12,492.382 1137.58,505.616 1171.3,526.26C1181.92,532.761 1190.41,539.948 1196.21,547.751C1201.28,554.578 1204.2,561.791 1204.2,569.379C1204.2,576.967 1201.28,584.179 1196.21,591.007C1190.41,598.81 1181.92,605.997 1171.3,612.497C1137.58,633.141 1083.12,646.376 1021.77,646.376C960.413,646.376 905.956,633.141 872.23,612.497C861.609,605.997 853.116,598.81 847.324,591.007C842.255,584.179 839.331,576.967 839.331,569.379C839.331,561.791 842.255,554.578 847.324,547.751C853.116,539.948 861.609,532.761 872.23,526.26C905.956,505.616 960.413,492.382 1021.77,492.382Z" style="fill:rgb(0,47,167);"/>
        </g>
        <g transform="matrix(1.18618,0,0,1.18618,52.4564,-129.449)">
            <text x="689.031px" y="691.751px" style="font-family:'HarlowSolid', 'Harlow Solid Italic', fantasy;font-style:italic;font-stretch:semi-expanded;font-size:67.443px;fill:white;">MUG</text>
        </g>
    </g>
</svg>
