<?xml version="1.0" encoding="UTF-8" standalone="no"?>
<!DOCTYPE svg PUBLIC "-//W3C//DTD SVG 1.1//EN" "http://www.w3.org/Graphics/SVG/1.1/DTD/svg11.dtd">
<svg width="100%" height="100%" viewBox="0 0 5334 3000" version="1.1" xmlns="http://www.w3.org/2000/svg" xmlns:xlink="http://www.w3.org/1999/xlink" xml:space="preserve" xmlns:serif="http://www.serif.com/" style="fill-rule:evenodd;clip-rule:evenodd;stroke-linejoin:round;stroke-miterlimit:2;">
    <g transform="matrix(2.08333,0,0,2.08333,0,0)">
        <g transform="matrix(1.2965,0,0,1.04091,436.259,-70.6298)">
            <path d="M514.187,617.176C520.719,613.149 527.017,609.688 532.5,606.489C568.237,585.642 596.287,648.093 596.287,708.803C596.287,769.514 571.962,814 532.5,814C493.038,814 461,764.711 461,704C461,655.923 489.314,632.48 514.187,617.176L514.535,618.059L514.594,618.196L514.634,618.295L514.736,618.52L514.943,618.994L515.077,619.272L515.158,619.451L515.247,619.626L515.381,619.902L515.618,620.35L515.728,620.567L515.78,620.657L515.848,620.784L516.342,621.639L515.78,620.657L515.618,620.35L515.247,619.626L515.077,619.272L514.736,618.52L514.594,618.196L514.187,617.176ZM541.077,629.3C549.356,624.47 555.864,631.884 561.183,641.427C570.629,658.374 576.064,683.826 576.064,708.803C576.064,753.324 561.438,788.812 532.5,788.812C502.897,788.812 481.223,749.543 481.223,704C481.223,677.703 493.568,662.071 507.064,651.011C518.646,641.519 531.282,635.014 541.077,629.3ZM532.5,631.677C531.908,631.677 531.32,631.645 530.739,631.582L531.616,631.653L532.5,631.677ZM525.16,629.954L524.138,629.425L524.915,629.841L525.16,629.954L525.352,630.054L525.622,630.168L525.952,630.322L526.3,630.456L526.603,630.585L526.815,630.656L527.013,630.733L527.516,630.89L527.888,631.014L528.004,631.043C528.399,631.158 528.798,631.255 529.201,631.338L528.004,631.043L527.516,630.89L526.815,630.656L526.3,630.456L525.622,630.168L525.16,629.954ZM518.584,624.765L518.945,625.175L518.584,624.765L518.458,624.611L518.584,624.765Z" style="fill:rgb(0,47,167);"/>
        </g>
        <g transform="matrix(0.792976,0,0,0.67492,166.411,402.385)">
            <ellipse cx="1021.77" cy="569.379" rx="189.161" ry="84.899" style="fill:rgb(0,47,167);"/>
        </g>
        <g transform="matrix(1,0,0,0.998902,0,0.534473)">
            <rect x="826.647" y="486.67" width="300" height="300.33" style="fill:rgb(0,47,167);"/>
            <path d="M1126.65,486.67L826.647,486.67L826.647,787L1126.65,787L1126.65,486.67ZM1121.31,492.009L1121.31,781.661C1121.31,781.661 831.981,781.661 831.981,781.661C831.981,781.661 831.981,492.009 831.981,492.009L1121.31,492.009Z" style="fill:rgb(0,47,167);"/>
        </g>
        <g transform="matrix(0.792976,0,0,0.67492,166.411,102.385)">
            <ellipse cx="1021.77" cy="569.379" rx="189.161" ry="84.899" style="fill:white;"/>
            <path d="M1021.77,484.48C1126.17,484.48 1210.93,522.522 1210.93,569.379C1210.93,616.236 1126.17,654.278 1021.77,654.278C917.365,654.278 832.605,616.236 832.605,569.379C832.605,522.522 917.365,484.48 1021.77,484.48ZM1021.77,492.382C1083.12,492.382 1137.58,505.616 1171.3,526.26C1181.92,532.761 1190.41,539.948 1196.21,547.751C1201.28,554.578 1204.2,561.791 1204.2,569.379C1204.2,576.967 1201.28,584.179 1196.21,591.007C1190.41,598.81 1181.92,605.997 1171.3,612.497C1137.58,633.141 1083.12,646.376 1021.77,646.376C960.413,646.376 905.956,633.141 872.23,612.497C861.609,605.997 853.116,598.81 847.324,591.007C842.255,584.179 839.331,576.967 839.331,569.379C839.331,561.791 842.255,554.578 847.324,547.751C853.116,539.948 861.609,532.761 872.23,526.26C905.956,505.616 960.413,492.382 1021.77,492.382Z" style="fill:rgb(0,47,167);"/>
        </g>
        <g transform="matrix(1.18618,0,0,1.18618,42.4564,-129.449)">
            <g transform="matrix(67.4433,0,0,67.4433,689.031,691.751)">
                <path d="M0.91,-0.117L0.989,-0.117C1.034,-0.117 1.057,-0.101 1.057,-0.07C1.057,-0.048 1.049,-0.031 1.033,-0.019C1.017,-0.006 0.995,-0 0.966,-0L0.874,-0C0.84,-0 0.814,-0.007 0.795,-0.021C0.777,-0.035 0.768,-0.056 0.768,-0.082C0.768,-0.099 0.774,-0.124 0.788,-0.156L0.914,-0.45L0.819,-0.349C0.797,-0.325 0.776,-0.313 0.755,-0.313C0.729,-0.313 0.712,-0.331 0.704,-0.367L0.69,-0.427L0.571,-0.133C0.53,-0.032 0.499,0.036 0.478,0.073C0.456,0.109 0.428,0.14 0.394,0.167C0.345,0.205 0.288,0.225 0.224,0.225C0.155,0.225 0.1,0.203 0.057,0.16C0.014,0.117 -0.007,0.061 -0.007,-0.009C-0.007,-0.1 0.027,-0.18 0.094,-0.249C0.13,-0.285 0.175,-0.315 0.229,-0.338C0.283,-0.36 0.336,-0.372 0.389,-0.372C0.415,-0.372 0.437,-0.366 0.453,-0.354C0.469,-0.343 0.477,-0.328 0.477,-0.309C0.477,-0.289 0.468,-0.273 0.451,-0.261C0.441,-0.254 0.423,-0.249 0.395,-0.246C0.33,-0.24 0.278,-0.225 0.238,-0.202C0.205,-0.182 0.179,-0.156 0.159,-0.124C0.14,-0.092 0.13,-0.059 0.13,-0.024C0.13,0.013 0.14,0.042 0.159,0.064C0.178,0.085 0.203,0.096 0.236,0.096C0.276,0.096 0.31,0.079 0.339,0.045C0.368,0.011 0.4,-0.048 0.435,-0.133L0.629,-0.61C0.646,-0.652 0.669,-0.673 0.697,-0.673C0.715,-0.673 0.73,-0.667 0.74,-0.656C0.751,-0.644 0.76,-0.624 0.768,-0.594L0.798,-0.482L0.944,-0.626C0.977,-0.658 1.007,-0.673 1.035,-0.673C1.054,-0.673 1.071,-0.667 1.084,-0.656C1.098,-0.644 1.104,-0.629 1.104,-0.612C1.104,-0.602 1.102,-0.59 1.097,-0.577L1.085,-0.55L0.91,-0.117Z" style="fill:white;fill-rule:nonzero;"/>
            </g>
            <g transform="matrix(67.4433,0,0,67.4433,760.821,691.751)">
                <path d="M0.89,-0.55L0.734,-0.167C0.708,-0.102 0.676,-0.055 0.64,-0.026C0.604,0.004 0.559,0.019 0.505,0.019C0.454,0.019 0.41,0.003 0.375,-0.028C0.339,-0.059 0.322,-0.097 0.322,-0.143C0.322,-0.176 0.332,-0.219 0.354,-0.271L0.406,-0.4C0.426,-0.449 0.436,-0.482 0.436,-0.499C0.436,-0.515 0.429,-0.529 0.415,-0.54C0.401,-0.552 0.385,-0.557 0.365,-0.557C0.333,-0.557 0.304,-0.543 0.278,-0.515C0.251,-0.487 0.238,-0.456 0.238,-0.422C0.238,-0.402 0.243,-0.386 0.252,-0.375C0.261,-0.363 0.277,-0.353 0.3,-0.344C0.324,-0.335 0.336,-0.319 0.336,-0.298C0.336,-0.28 0.329,-0.265 0.315,-0.253C0.301,-0.24 0.284,-0.234 0.263,-0.234C0.221,-0.234 0.186,-0.252 0.157,-0.286C0.128,-0.32 0.113,-0.362 0.113,-0.411C0.113,-0.482 0.14,-0.544 0.193,-0.597C0.246,-0.65 0.309,-0.676 0.38,-0.676C0.434,-0.676 0.479,-0.66 0.514,-0.629C0.55,-0.597 0.568,-0.557 0.568,-0.509C0.568,-0.478 0.559,-0.442 0.542,-0.4L0.468,-0.217C0.457,-0.19 0.452,-0.169 0.452,-0.154C0.452,-0.138 0.457,-0.124 0.468,-0.114C0.479,-0.104 0.493,-0.099 0.511,-0.099C0.533,-0.099 0.552,-0.106 0.567,-0.122C0.581,-0.137 0.597,-0.164 0.613,-0.204L0.773,-0.599C0.785,-0.628 0.797,-0.646 0.809,-0.654C0.821,-0.662 0.842,-0.667 0.872,-0.667L0.977,-0.667C1.022,-0.667 1.044,-0.651 1.044,-0.621C1.044,-0.598 1.037,-0.58 1.021,-0.568C1.005,-0.556 0.983,-0.55 0.955,-0.55L0.89,-0.55Z" style="fill:white;fill-rule:nonzero;"/>
            </g>
            <g transform="matrix(67.4433,0,0,67.4433,818.385,691.751)">
                <path d="M0.621,-0.117L0.693,-0.117C0.738,-0.117 0.761,-0.101 0.761,-0.069C0.761,-0.047 0.753,-0.031 0.737,-0.018C0.721,-0.006 0.699,-0 0.67,-0L0.573,-0L0.537,0.09C0.497,0.189 0.456,0.259 0.413,0.3C0.37,0.341 0.317,0.361 0.252,0.361C0.192,0.361 0.141,0.341 0.101,0.301C0.06,0.261 0.04,0.211 0.04,0.15C0.04,0.055 0.086,-0.018 0.177,-0.069C0.232,-0.1 0.309,-0.116 0.406,-0.116L0.484,-0.117L0.5,-0.158C0.476,-0.149 0.451,-0.145 0.425,-0.145C0.375,-0.145 0.335,-0.162 0.304,-0.197C0.274,-0.231 0.258,-0.277 0.258,-0.333L0.178,-0.333C0.142,-0.333 0.124,-0.349 0.124,-0.38C0.124,-0.4 0.131,-0.416 0.146,-0.43C0.161,-0.443 0.179,-0.45 0.201,-0.45L0.284,-0.45C0.32,-0.521 0.365,-0.576 0.419,-0.616C0.473,-0.656 0.53,-0.676 0.59,-0.676C0.64,-0.676 0.681,-0.662 0.712,-0.632C0.744,-0.603 0.759,-0.565 0.759,-0.519C0.759,-0.454 0.73,-0.404 0.672,-0.369C0.633,-0.345 0.575,-0.333 0.497,-0.333L0.386,-0.333L0.386,-0.324C0.386,-0.282 0.41,-0.261 0.459,-0.261C0.481,-0.261 0.503,-0.268 0.526,-0.281L0.552,-0.296C0.574,-0.309 0.593,-0.315 0.609,-0.315C0.627,-0.315 0.642,-0.31 0.654,-0.299C0.666,-0.289 0.671,-0.275 0.671,-0.258C0.671,-0.247 0.667,-0.231 0.658,-0.208L0.621,-0.117ZM0.437,-0C0.368,-0 0.315,0.007 0.279,0.02C0.245,0.032 0.218,0.049 0.199,0.072C0.179,0.094 0.169,0.119 0.169,0.146C0.169,0.172 0.178,0.193 0.195,0.211C0.211,0.229 0.232,0.237 0.256,0.237C0.286,0.237 0.313,0.224 0.337,0.198C0.361,0.171 0.384,0.129 0.408,0.07L0.437,-0ZM0.421,-0.45L0.516,-0.45C0.597,-0.45 0.637,-0.472 0.637,-0.516C0.637,-0.529 0.632,-0.54 0.621,-0.549C0.611,-0.557 0.597,-0.562 0.581,-0.562C0.556,-0.562 0.529,-0.552 0.501,-0.532C0.472,-0.512 0.446,-0.485 0.421,-0.45Z" style="fill:white;fill-rule:nonzero;"/>
            </g>
        </g>
    </g>
</svg>
